<svg width="72" height="72" viewBox="0 0 72 72" fill="none" xmlns="http://www.w3.org/2000/svg">
<g id="Group 117" filter="url(#filter0_d_50_8037)">
<circle id="Ellipse 7" cx="36" cy="36" r="29.5" fill="url(#paint0_linear_50_8037)" stroke="#73DFFF"/>
<g id="Mask group">
<mask id="mask0_50_8037" style="mask-type:alpha" maskUnits="userSpaceOnUse" x="7" y="7" width="58" height="58">
<circle id="Ellipse 9" cx="36" cy="36" r="29" fill="url(#paint1_linear_50_8037)"/>
</mask>
<g mask="url(#mask0_50_8037)">
<g id="Group 38">
<path id="Vector" d="M44.2739 29.3384C44.6776 29.2622 45.0507 29.3308 45.1802 29.7801C45.5991 31.288 44.2663 33.39 43.025 33.2681C39.4379 42.3765 32.5305 42.3765 28.9434 33.2681C27.7173 33.39 26.3617 31.288 26.7882 29.7801C26.91 29.3384 27.2832 29.2698 27.6869 29.3384C27.3289 27.7543 27.1385 25.7894 27.4812 24.1978C28.9511 17.3893 41.0982 16.2088 41.776 20.565C45.0584 21.6617 45.2259 25.2183 44.2739 29.3384Z" fill="#07B9EE"/>
<path id="Vector_2" d="M34.2672 49.5353C32.4394 46.7251 31.358 43.9073 30.7716 41.8206C30.2385 42.0262 29.614 42.2166 28.9286 42.3994C27.1998 46.1539 27.573 51.4926 29.0047 55.1786C30.1471 55.0948 31.1219 55.9935 31.1219 57.1358C31.1219 58.2249 30.2385 59.1007 29.1571 59.1007C27.4207 59.1007 26.5525 57.014 27.7405 55.7726C26.2555 52.0104 25.8366 46.8393 27.2303 42.8487C24.6028 43.557 21.7698 44.4556 20.8254 46.3596C19.3708 49.3069 18.2361 57.7832 18 63L35.9579 67L53.9615 63C53.7254 57.7908 52.5831 49.3145 51.1285 46.3748C50.245 44.5851 47.6938 43.6864 45.2187 42.9934C45.4319 44.3719 45.31 45.8417 44.9673 47.3191C46.7342 48.0426 47.8232 49.8095 47.4729 52.0561C46.9931 55.11 47.6557 60.6086 43.7412 59.7252C42.8425 59.5196 43.1472 58.1563 44.0458 58.362C44.9293 58.56 45.3253 57.9583 45.5309 57.0292C45.8279 55.7041 45.8355 53.4422 46.0869 51.8429C46.6733 48.1112 41.685 46.9841 40.6188 50.6091C40.1694 52.1399 39.2022 54.1885 38.8976 55.5365C38.6844 56.4656 38.7834 57.1815 39.6668 57.3795C40.5654 57.5775 40.2608 58.9484 39.3622 58.7428C35.4553 57.8669 38.395 53.1985 39.2708 50.2131C39.9181 48.0122 41.685 46.885 43.5965 47.0069C43.9392 45.499 44.0535 43.9682 43.7031 42.5898C42.7664 42.3384 41.8906 42.0947 41.1823 41.8282C40.6644 43.7169 39.4612 46.7023 37.6562 49.5353L37.0165 45.9407L37.4963 44.7831L35.9579 43.4884L34.4195 44.7831L34.8993 45.9407L34.2672 49.5353Z" fill="#07B9EE"/>
</g>
</g>
</g>
</g>
<defs>
<filter id="filter0_d_50_8037" x="0" y="0" width="72" height="72" filterUnits="userSpaceOnUse" color-interpolation-filters="sRGB">
<feFlood flood-opacity="0" result="BackgroundImageFix"/>
<feColorMatrix in="SourceAlpha" type="matrix" values="0 0 0 0 0 0 0 0 0 0 0 0 0 0 0 0 0 0 127 0" result="hardAlpha"/>
<feOffset/>
<feGaussianBlur stdDeviation="3"/>
<feComposite in2="hardAlpha" operator="out"/>
<feColorMatrix type="matrix" values="0 0 0 0 0 0 0 0 0 0.82 0 0 0 0 1 0 0 0 1 0"/>
<feBlend mode="normal" in2="BackgroundImageFix" result="effect1_dropShadow_50_8037"/>
<feBlend mode="normal" in="SourceGraphic" in2="effect1_dropShadow_50_8037" result="shape"/>
</filter>
<linearGradient id="paint0_linear_50_8037" x1="36" y1="7" x2="36" y2="65" gradientUnits="userSpaceOnUse">
<stop stop-color="#0A73C5"/>
<stop offset="1" stop-color="#00499D"/>
</linearGradient>
<linearGradient id="paint1_linear_50_8037" x1="36" y1="7" x2="36" y2="65" gradientUnits="userSpaceOnUse">
<stop stop-color="#0A73C5"/>
<stop offset="1" stop-color="#00499D"/>
</linearGradient>
</defs>
</svg>
