<svg width="30" height="30" viewBox="0 0 30 30" fill="none" xmlns="http://www.w3.org/2000/svg">
<g id="Frame 12" clip-path="url(#clip0_53_12412)">
<g id="Group 11">
<path id="Vector" d="M29.0385 16.5344H2.03846C1.46244 16.5344 1 16.072 1 15.496C1 14.92 1.46244 14.4575 2.03846 14.4575H29.0385C29.6145 14.4575 30.077 14.92 30.077 15.496C30.077 16.072 29.6145 16.5344 29.0385 16.5344Z" fill="white" stroke="white" stroke-width="0.54"/>
<path id="Vector_2" d="M25.923 29H19.6881C19.1121 29 18.6497 28.5375 18.6497 27.9615C18.6497 27.3855 19.1121 26.9231 19.6881 26.9231H25.9189C26.4949 26.9231 26.9574 26.4606 26.9574 25.8846V20.6923C26.9574 20.1162 27.4198 19.6538 27.9958 19.6538C28.5718 19.6538 29.0343 20.1162 29.0343 20.6923V25.8846C29.0383 27.6005 27.6389 29 25.923 29Z" fill="white" stroke="white" stroke-width="0.54"/>
<path id="Vector_3" d="M10.3463 29H5.15396C3.43401 29 2.03857 27.6045 2.03857 25.8846V20.6923C2.03857 20.1162 2.50101 19.6538 3.07704 19.6538C3.65306 19.6538 4.1155 20.1162 4.1155 20.6923V25.8846C4.1155 26.4606 4.58605 26.9231 5.15396 26.9231H10.3463C10.9223 26.9231 11.3847 27.3855 11.3847 27.9615C11.3847 28.5375 10.9182 29 10.3463 29Z" fill="white" stroke="white" stroke-width="0.54"/>
<path id="Vector_4" d="M3.07704 11.3462C2.50101 11.3462 2.03857 10.8837 2.03857 10.3077V5.11539C2.03857 3.39543 3.43401 2 5.15396 2H10.3463C10.9182 2 11.3847 2.46244 11.3847 3.03846C11.3847 3.61449 10.9223 4.07693 10.3463 4.07693H5.15396C4.58605 4.07693 4.1155 4.54748 4.1155 5.11539V10.3077C4.1155 10.8797 3.65306 11.3462 3.07704 11.3462Z" fill="white" stroke="white" stroke-width="0.54"/>
<path id="Vector_5" d="M27.9999 11.3462C27.4239 11.3462 26.9614 10.8837 26.9614 10.3077V5.11539C26.9614 4.54748 26.499 4.07693 25.923 4.07693H19.6881C19.1121 4.07693 18.6497 3.61449 18.6497 3.03846C18.6497 2.46244 19.1121 2 19.6881 2H25.9189C27.6389 2 29.0343 3.39543 29.0343 5.11539V10.3077C29.0383 10.8797 28.5759 11.3462 27.9999 11.3462Z" fill="white" stroke="white" stroke-width="0.54"/>
</g>
</g>
<defs>
<clipPath id="clip0_53_12412">
<rect width="30" height="30" fill="white"/>
</clipPath>
</defs>
</svg>
